<svg xmlns="http://www.w3.org/2000/svg" viewBox="0 0 316.81 28.24"><defs><style>.cls-1{fill:#4c555a;}</style></defs><title>nujawak.online</title><g id="" data-name=""><g id="" data-name=""><path class="cls-1" d="M0,8.24H4.71V9.93a5.15,5.15,0,0,1,2-1.57A6.12,6.12,0,0,1,9,8a5.79,5.79,0,0,1,2.4.46,4.79,4.79,0,0,1,1.7,1.29,3.71,3.71,0,0,1,.78,1.51,7.88,7.88,0,0,1,.21,1.9v8.48H9.36V14.85a7.3,7.3,0,0,0-.14-1.6,2,2,0,0,0-.51-1,1.78,1.78,0,0,0-.7-.44,2.61,2.61,0,0,0-.83-.13,2.33,2.33,0,0,0-1.83.71,3,3,0,0,0-.64,2v7.12H0Z"/><path class="cls-1" d="M29.77,8.24v7.51a2.15,2.15,0,0,0,2.39,2.47,2.15,2.15,0,0,0,2.39-2.47V8.24h4.71v8.42a4.77,4.77,0,0,1-1.78,4.06,8.73,8.73,0,0,1-5.32,1.35,8.72,8.72,0,0,1-5.32-1.35,4.77,4.77,0,0,1-1.78-4.06V8.24Z"/><path class="cls-1" d="M49.94,3.12a2.56,2.56,0,0,1,.21-1A2.7,2.7,0,0,1,51.57.68a2.63,2.63,0,0,1,2.05,0,2.69,2.69,0,0,1,.85.57,2.73,2.73,0,0,1,.57.84,2.65,2.65,0,0,1,0,2.05,2.73,2.73,0,0,1-.57.84,2.67,2.67,0,0,1-.85.57,2.63,2.63,0,0,1-2.05,0A2.67,2.67,0,0,1,50.73,5a2.7,2.7,0,0,1-.57-.84A2.56,2.56,0,0,1,49.94,3.12Zm5,5.12v20H50.26v-20Z"/><path class="cls-1" d="M76.28,8.24H81V21.58H76.28V20.1A4.94,4.94,0,0,1,72.2,22a6.62,6.62,0,0,1-2.68-.53A6.44,6.44,0,0,1,67.39,20,6.89,6.89,0,0,1,66,17.71a7.73,7.73,0,0,1-.51-2.83A7.52,7.52,0,0,1,66,12.16a7,7,0,0,1,1.38-2.25,6.41,6.41,0,0,1,4.81-2.08,5.43,5.43,0,0,1,4.13,1.74Zm-5.93,6.63a3.11,3.11,0,0,0,.87,2.18,2.86,2.86,0,0,0,1,.65,3.09,3.09,0,0,0,1.21.23,3,3,0,0,0,1.18-.23,2.87,2.87,0,0,0,1-.65,3.38,3.38,0,0,0,.65-1,2.82,2.82,0,0,0,.25-1.17,2.91,2.91,0,0,0-.25-1.18,3.31,3.31,0,0,0-.65-1,2.87,2.87,0,0,0-1-.65,3,3,0,0,0-1.18-.23,3.09,3.09,0,0,0-1.21.23,2.86,2.86,0,0,0-1,.65,3.22,3.22,0,0,0-.64.95A2.84,2.84,0,0,0,70.36,14.87Z"/><path class="cls-1" d="M95.65,8.24l3.2,7,3.33-7h3l3.33,7.23,3.35-7.23h5.23l-7,13.34h-3.15l-3.33-7.31-3.17,7.31h-3.2L90.4,8.24Z"/><path class="cls-1" d="M136.76,8.24h4.73V21.58h-4.73V20.1a4.94,4.94,0,0,1-4.08,1.9,6.62,6.62,0,0,1-2.68-.53,6.44,6.44,0,0,1-2.13-1.5,6.89,6.89,0,0,1-1.42-2.26,7.73,7.73,0,0,1-.51-2.83,7.52,7.52,0,0,1,.49-2.72,7,7,0,0,1,1.38-2.25,6.41,6.41,0,0,1,4.81-2.08,5.43,5.43,0,0,1,4.13,1.74Zm-5.93,6.63a3.11,3.11,0,0,0,.87,2.18,2.86,2.86,0,0,0,1,.65,3.09,3.09,0,0,0,1.21.23,3,3,0,0,0,1.18-.23,2.87,2.87,0,0,0,1-.65,3.38,3.38,0,0,0,.65-1,2.82,2.82,0,0,0,.25-1.17,2.91,2.91,0,0,0-.25-1.18,3.31,3.31,0,0,0-.65-1,2.87,2.87,0,0,0-1-.65,3,3,0,0,0-1.18-.23,3.09,3.09,0,0,0-1.21.23,2.86,2.86,0,0,0-1,.65,3.22,3.22,0,0,0-.64.95A2.84,2.84,0,0,0,130.83,14.87Z"/><path class="cls-1" d="M157.19,0V13.05l4.94-4.81h6.45L161.9,14.4,169,21.58h-6.6l-5.17-5.43v5.43h-4.71V0Z"/><path class="cls-1" d="M178.2,19.08a3,3,0,0,1,.23-1.18,3,3,0,0,1,1.63-1.62,3.07,3.07,0,0,1,3.34.65,3,3,0,0,1,.65,1,3.1,3.1,0,0,1,0,2.37,3,3,0,0,1-1.62,1.63,3.07,3.07,0,0,1-3.34-.65,3,3,0,0,1-.65-1A3,3,0,0,1,178.2,19.08Z"/><path class="cls-1" d="M194.56,14.79a6.49,6.49,0,0,1,.6-2.77,6.8,6.8,0,0,1,1.66-2.24,7.93,7.93,0,0,1,2.54-1.5,9.17,9.17,0,0,1,3.21-.55,9.27,9.27,0,0,1,3.19.53,7.89,7.89,0,0,1,2.55,1.48A6.66,6.66,0,0,1,210,12a6.92,6.92,0,0,1,.6,2.9,6.79,6.79,0,0,1-.61,2.9,6.89,6.89,0,0,1-1.68,2.26,7.49,7.49,0,0,1-2.56,1.47,9.79,9.79,0,0,1-3.24.52,9.37,9.37,0,0,1-3.17-.52,7.3,7.3,0,0,1-2.51-1.48,6.87,6.87,0,0,1-1.65-2.3A7.21,7.21,0,0,1,194.56,14.79Zm5,.05a3,3,0,0,0,.25,1.23,3.31,3.31,0,0,0,.65,1,2.86,2.86,0,0,0,1,.65,3.1,3.1,0,0,0,2.37,0,2.88,2.88,0,0,0,1-.65,3.29,3.29,0,0,0,.65-1,3,3,0,0,0,.25-1.21,2.89,2.89,0,0,0-.25-1.18,3.3,3.3,0,0,0-.65-1,2.88,2.88,0,0,0-1-.65,3.12,3.12,0,0,0-2.37,0,2.86,2.86,0,0,0-1,.65,3.36,3.36,0,0,0-.65,1A2.8,2.8,0,0,0,199.52,14.85Z"/><path class="cls-1" d="M221.08,8.24h4.71V9.93a5.15,5.15,0,0,1,1.95-1.57A6.13,6.13,0,0,1,230,8a5.8,5.8,0,0,1,2.41.46,4.8,4.8,0,0,1,1.7,1.29,3.7,3.7,0,0,1,.78,1.51,7.86,7.86,0,0,1,.21,1.9v8.48h-4.71V14.85a7.3,7.3,0,0,0-.14-1.6,2,2,0,0,0-.51-1,1.78,1.78,0,0,0-.7-.44,2.61,2.61,0,0,0-.83-.13,2.33,2.33,0,0,0-1.83.71,3,3,0,0,0-.64,2v7.12h-4.71Z"/><path class="cls-1" d="M250.85,0V21.58h-4.71V0Z"/><path class="cls-1" d="M261.56,3.12a2.56,2.56,0,0,1,.21-1A2.7,2.7,0,0,1,263.18.68a2.63,2.63,0,0,1,2.05,0,2.69,2.69,0,0,1,.85.57,2.73,2.73,0,0,1,.57.84,2.65,2.65,0,0,1,0,2.05,2.73,2.73,0,0,1-.57.84,2.67,2.67,0,0,1-.85.57,2.63,2.63,0,0,1-2.05,0,2.67,2.67,0,0,1-.84-.57,2.7,2.7,0,0,1-.57-.84A2.56,2.56,0,0,1,261.56,3.12Zm5,5.12V21.58h-4.71V8.24Z"/><path class="cls-1" d="M277.6,8.24h4.71V9.93a5.15,5.15,0,0,1,1.95-1.57,6.13,6.13,0,0,1,2.31-.4,5.8,5.8,0,0,1,2.41.46,4.8,4.8,0,0,1,1.7,1.29,3.7,3.7,0,0,1,.78,1.51,7.86,7.86,0,0,1,.21,1.9v8.48H287V14.85a7.3,7.3,0,0,0-.14-1.6,2,2,0,0,0-.51-1,1.78,1.78,0,0,0-.7-.44,2.61,2.61,0,0,0-.83-.13,2.33,2.33,0,0,0-1.83.71,3,3,0,0,0-.64,2v7.12H277.6Z"/><path class="cls-1" d="M306.9,15.7q0,3,2.86,3a2.56,2.56,0,0,0,2.31-1.25h4.55q-1.38,4.58-6.89,4.58a9.05,9.05,0,0,1-3.09-.51,6.92,6.92,0,0,1-2.41-1.44,6.44,6.44,0,0,1-1.55-2.24,7.46,7.46,0,0,1-.55-2.91,8.21,8.21,0,0,1,.52-3,6.31,6.31,0,0,1,1.48-2.28,6.57,6.57,0,0,1,2.33-1.44,8.81,8.81,0,0,1,3.08-.51,8.62,8.62,0,0,1,3,.51,6.16,6.16,0,0,1,2.29,1.47,6.39,6.39,0,0,1,1.43,2.35,9.33,9.33,0,0,1,.49,3.13v.49ZM312.41,13a2.84,2.84,0,0,0-1-1.59,3,3,0,0,0-3.55,0A2.58,2.58,0,0,0,307,13Z"/></g></g></svg>